<svg width="100%" height="100%" viewBox="0 0 191 60" fill="none" xmlns="http://www.w3.org/2000/svg">
<g clip-path="url(#clip0_23_73)">
<path d="M49.7055 25.2745C49.2159 23.52 48.5012 21.8304 47.5706 20.2533C46.7136 18.8008 45.6841 17.4611 44.5146 16.2584H48.5677C49.6264 16.2584 50.4848 15.4001 50.4848 14.3413C50.4848 13.2826 49.6265 12.4242 48.5677 12.4242H42.679C41.7459 5.92979 36.1458 0.921875 29.3971 0.921875C22.6486 0.921875 17.0483 5.92979 16.1153 12.4242H10.2267C9.16798 12.4242 8.30956 13.2825 8.30956 14.3413C8.30956 15.4001 9.16786 16.2584 10.2267 16.2584H14.2798C13.1103 17.4611 12.0809 18.8009 11.2239 20.2533C10.2937 21.8296 9.57928 23.5183 9.08967 25.2718C7.0434 25.5103 5.14146 26.3966 3.61706 27.8481C1.69813 29.6753 0.641296 32.1407 0.641296 34.79C0.641296 39.4494 3.98404 43.3414 8.39682 44.198C9.27189 52.8976 16.6366 59.7115 25.5631 59.7115H33.2313C42.1578 59.7115 49.5224 52.8976 50.3976 44.1978C54.8105 43.3411 58.1531 39.4493 58.1531 34.7899C58.153 29.8897 54.4562 25.8393 49.7055 25.2745ZM8.30956 40.2113C6.07819 39.4199 4.47548 37.289 4.47548 34.7899C4.47548 32.2038 6.15742 30.0954 8.37351 29.3435C8.28774 30.4657 8.30956 30.1329 8.30956 40.2113ZM29.3971 4.75595C34.0261 4.75595 37.8989 8.05426 38.7896 12.4242H20.0047C20.8954 8.05437 24.7683 4.75595 29.3971 4.75595ZM46.6506 42.458C46.6506 49.8575 40.6307 55.8775 33.2312 55.8775H25.5629C18.1635 55.8775 12.1435 49.8575 12.1435 42.458V30.9557C12.1435 24.9752 15.2784 19.3902 20.357 16.2583H38.4372C43.5156 19.3902 46.6505 24.9751 46.6505 30.9557L46.6506 42.458ZM50.4847 40.2113C50.4847 30.1267 50.5062 30.4628 50.4211 29.3469C52.6854 30.12 54.3189 32.2671 54.3189 34.7898C54.3188 37.289 52.7161 39.4199 50.4847 40.2113Z" fill="#5448E0"/>
<path d="M29.3972 32.8727C26.226 32.8727 23.6461 35.4527 23.6461 38.6239C23.6461 41.7951 26.226 44.3751 29.3972 44.3751C32.5684 44.3751 35.1484 41.7951 35.1484 38.6239C35.1484 35.4527 32.5684 32.8727 29.3972 32.8727ZM29.3972 40.5409C28.3402 40.5409 27.4801 39.6809 27.4801 38.6238C27.4801 37.5667 28.3402 36.7067 29.3972 36.7067C30.4543 36.7067 31.3143 37.5667 31.3143 38.6238C31.3143 39.6809 30.4543 40.5409 29.3972 40.5409Z" fill="#5448E0"/>
<path d="M40.8996 36.7068C39.8409 36.7068 38.9825 37.5652 38.9825 38.6239C38.9825 43.9093 34.6826 48.2092 29.3973 48.2092C24.1119 48.2092 19.812 43.9093 19.812 38.6239C19.812 37.5653 18.9537 36.7068 17.8949 36.7068C16.8362 36.7068 15.9778 37.5652 15.9778 38.6239C15.9778 46.0234 21.9978 52.0434 29.3973 52.0434C36.7967 52.0434 42.8167 46.0234 42.8167 38.6239C42.8167 37.5652 41.9583 36.7068 40.8996 36.7068Z" fill="#5448E0"/>
<path d="M23.6461 24.2562V22.0094C23.6461 20.9508 22.7878 20.0923 21.729 20.0923C20.6702 20.0923 19.8119 20.9507 19.8119 22.0094V24.2562C17.5806 25.0476 15.9778 27.1785 15.9778 29.6776C15.9778 30.7363 16.8362 31.5947 17.8949 31.5947C18.9537 31.5947 19.812 30.7364 19.812 29.6776C19.812 28.6205 20.6721 27.7605 21.7291 27.7605C22.7862 27.7605 23.6462 28.6205 23.6462 29.6776C23.6462 30.7363 24.5045 31.5947 25.5633 31.5947C26.6221 31.5947 27.4804 30.7364 27.4804 29.6776C27.4802 27.1785 25.8775 25.0476 23.6461 24.2562Z" fill="#5448E0"/>
<path d="M38.9824 24.2562V22.0094C38.9824 20.9508 38.1241 20.0923 37.0653 20.0923C36.0065 20.0923 35.1482 20.9507 35.1482 22.0094V24.2562C32.9169 25.0476 31.3141 27.1785 31.3141 29.6776C31.3141 30.7363 32.1725 31.5947 33.2312 31.5947C34.29 31.5947 35.1483 30.7364 35.1483 29.6776C35.1483 28.6205 36.0084 27.7605 37.0654 27.7605C38.1225 27.7605 38.9825 28.6205 38.9825 29.6776C38.9825 30.7363 39.8408 31.5947 40.8996 31.5947C41.9583 31.5947 42.8167 30.7364 42.8167 29.6776C42.8166 27.1785 41.2138 25.0476 38.9824 24.2562Z" fill="#5448E0"/>
</g>
<path d="M70.8942 35.4206C70.8942 40.4965 74.3068 43.7371 79.6122 43.7371C84.9463 43.7371 88.3877 40.4679 88.3877 35.4206V22.1714H83.7418V35.1051C83.7418 37.7148 82.2506 39.2347 79.6122 39.2347C77.0025 39.2347 75.54 37.7721 75.54 35.1051V22.1714H70.8942V35.4206ZM96.5295 43.393V35.7073C96.5295 33.2984 97.82 32.6101 99.0818 32.6101C100.487 32.6101 101.405 33.4705 101.405 35.2485V43.393H105.821V35.7073C105.821 33.2697 107.083 32.5814 108.345 32.5814C109.75 32.5814 110.696 33.4418 110.696 35.2485V43.393H115.113V34.0153C115.113 30.7461 113.277 28.5952 109.578 28.5952C107.513 28.5952 105.821 29.5989 105.076 31.1189C104.244 29.5989 102.867 28.5952 100.716 28.5952C98.6517 28.5952 97.2464 29.5416 96.5295 30.5453L96.2427 29.0541H92.1131V43.393H96.5295ZM122.601 43.7658C124.752 43.7658 126.644 42.8194 127.103 41.5003L127.39 43.393H131.29V35.0191C131.29 30.9181 128.939 28.5952 124.78 28.5952C120.679 28.5952 118.012 30.7174 118.012 33.958H121.683C121.683 32.6675 122.687 31.9505 124.551 31.9505C126.128 31.9505 126.989 32.6962 126.989 34.1014V34.3308L122.974 34.6463C119.532 34.9044 117.668 36.539 117.668 39.1774C117.668 41.9878 119.561 43.7658 122.601 43.7658ZM124.149 40.4965C122.802 40.4965 122.171 40.009 122.171 38.9766C122.171 38.0589 122.859 37.6288 124.78 37.4567L127.017 37.2559V38.0302C127.017 39.6649 125.841 40.4965 124.149 40.4965ZM145.843 43.393V39.7222H139.247L145.843 32.7248V29.0541H133.827V32.7248H140.251L133.827 39.7222V43.393H145.843ZM150.724 26.8172C152.101 26.8172 153.219 25.6987 153.219 24.2935C153.219 22.8883 152.101 21.7986 150.724 21.7986C149.319 21.7986 148.201 22.8883 148.201 24.2935C148.201 25.6987 149.319 26.8172 150.724 26.8172ZM148.545 43.393H152.961V29.0541H148.545V43.393ZM160.691 43.393V35.5353C160.691 33.7572 161.809 32.6101 163.558 32.6101C165.078 32.6101 166.082 33.7859 166.082 35.5926V43.393H170.499V34.5315C170.499 30.7747 168.52 28.5952 165.107 28.5952C163.243 28.5952 161.608 29.3122 160.719 30.5453L160.433 29.0541H156.274V43.393H160.691ZM172.949 35.9654C172.949 40.2671 175.731 43.2209 179.746 43.2209C181.61 43.2209 183.216 42.5613 184.076 41.5289V43.393C184.076 45.4291 182.728 46.691 180.606 46.691C178.656 46.691 177.451 45.7446 177.365 44.1386H172.892C173.293 48.2109 176.247 50.7059 180.635 50.7059C185.538 50.7059 188.492 47.6087 188.492 42.4753V29.0541H184.334L184.105 30.488C183.33 29.3122 181.782 28.5665 179.832 28.5665C175.788 28.5665 172.949 31.6064 172.949 35.9654ZM177.394 35.8507C177.394 33.8146 178.742 32.4094 180.692 32.4094C182.728 32.4094 184.076 33.7572 184.076 35.8507C184.076 37.9729 182.728 39.3781 180.721 39.3781C178.77 39.3781 177.394 37.9155 177.394 35.8507Z" fill="white"/>
<defs>
<clipPath id="clip0_23_73">
<rect width="58.7897" height="58.7897" fill="white" transform="translate(0.00238037 0.921875)"/>
</clipPath>
</defs>
</svg>
